<svg version="1.1" id="Layer_1" xmlns="http://www.w3.org/2000/svg" xmlns:xlink="http://www.w3.org/1999/xlink" x="0px" y="0px"
	 width="100%" viewBox="0 0 496 496" enable-background="new 0 0 496 496" xml:space="preserve">
<path fill="#000000" opacity="1.000000" stroke="none" 
	d="
M445.561127,316.641541 
	C444.471161,313.561646 442.956757,313.963165 440.875336,315.263947 
	C421.572113,327.327606 401.637756,326.940460 381.206665,318.338837 
	C357.021942,308.156952 354.210541,284.843048 363.959045,266.917297 
	C373.555908,249.270309 388.000580,237.187042 408.546936,234.190826 
	C417.968842,232.816833 427.482635,233.360809 436.889709,235.024658 
	C438.004089,235.221741 439.135101,235.839417 440.501099,234.461105 
	C440.148346,231.026703 437.863129,228.654877 434.813446,227.225143 
	C420.190155,220.369446 405.649506,221.122711 391.919250,229.288742 
	C386.559021,232.476761 381.365753,234.060837 375.399658,233.227722 
	C369.013855,232.335983 365.033417,228.423218 362.744507,222.520493 
	C360.513763,216.767700 362.394379,212.268661 366.451538,208.064163 
	C377.088318,197.041214 390.380798,192.078415 405.283295,190.937576 
	C421.389069,189.704605 437.374939,190.621231 452.265961,197.451904 
	C467.310822,204.353134 475.701843,216.589706 476.176239,233.151932 
	C476.580750,247.275040 475.576813,261.435242 475.326477,275.581390 
	C475.118805,287.317780 476.591187,298.724060 481.174103,309.739410 
	C484.866425,318.614136 481.738953,323.983795 472.367584,326.565430 
	C462.212860,329.362854 450.620392,325.184723 445.561127,316.641541 
M439.673828,272.433868 
	C439.884125,268.135986 437.716583,265.206665 434.300720,262.938690 
	C423.822723,255.981766 407.046539,262.202026 403.590454,274.345398 
	C401.309235,282.360687 407.474976,291.281006 415.551208,291.649719 
	C426.887665,292.167267 437.118683,284.343842 439.673828,272.433868 
z"/>
<path fill="#000000" opacity="1.000000" stroke="none" 
	d="
M89.501617,321.803131 
	C71.195030,326.812439 54.126835,324.740143 38.091022,315.337585 
	C24.280878,307.239990 18.539793,293.415070 22.208654,277.783203 
	C27.762020,254.122086 52.937439,233.997101 77.254158,233.629013 
	C85.554871,233.503387 93.798286,233.922729 102.085098,235.586105 
	C103.317787,232.201019 101.545158,230.424332 99.578323,228.884857 
	C95.429977,225.637909 90.820305,223.634415 85.429123,223.256256 
	C73.017136,222.385651 61.423813,223.767365 50.672504,231.160492 
	C42.424644,236.832138 30.829828,233.367844 26.315912,225.120636 
	C22.877180,218.837860 23.419876,213.965790 28.332682,208.722992 
	C36.445786,200.065002 46.320927,194.539825 58.029346,192.424576 
	C76.922348,189.011398 95.497932,189.896500 113.546638,196.872086 
	C129.805634,203.155945 139.902328,221.937775 138.852295,239.411621 
	C137.640091,259.584290 135.118484,279.968567 140.297287,300.038269 
	C141.290695,303.888031 142.928619,307.567291 144.157974,311.361237 
	C146.413834,318.322998 143.836456,323.445129 136.919281,325.933624 
	C125.340080,330.099304 113.534569,325.732391 107.075157,314.917328 
	C106.837448,314.519287 106.384209,314.249969 105.838242,313.740356 
	C100.735306,316.799438 95.776215,320.208191 89.501617,321.803131 
M71.888817,289.784943 
	C81.286789,294.117889 94.164062,289.467926 99.728065,279.732178 
	C104.863403,270.746521 100.860847,262.084412 90.639969,260.399963 
	C84.326973,259.359558 78.399124,260.528076 73.128014,264.392151 
	C63.514404,271.439606 62.770782,281.253448 71.888817,289.784943 
z"/>
<path fill="#000000" opacity="1.000000" stroke="none" 
	d="
M340.542664,272.855194 
	C345.930939,286.083557 337.388550,305.747314 319.369781,315.038452 
	C312.595001,318.531769 305.225433,319.818390 297.844940,321.108093 
	C292.794373,321.990631 292.792542,321.980225 293.723450,327.733795 
	C297.922791,328.377106 302.228271,328.710541 306.364502,329.730530 
	C319.541290,332.979858 324.460327,344.751434 317.526428,356.455658 
	C312.288025,365.297974 304.564423,371.163818 294.629761,373.820374 
	C290.737671,374.861115 286.665771,375.225220 283.623352,371.460541 
	C280.103119,367.104584 280.963287,362.563873 285.858856,359.876678 
	C288.333099,358.518524 290.901550,357.301880 293.243866,355.745148 
	C294.601410,354.842865 295.797699,353.396210 295.229614,351.512299 
	C294.696594,349.744751 293.113220,348.912750 291.465179,348.557312 
	C288.817657,347.986267 286.203125,348.556122 283.556366,349.019928 
	C274.570618,350.594574 272.133759,348.364441 272.939087,339.424866 
	C273.371124,334.628967 273.886841,329.835907 274.549774,325.067291 
	C274.951599,322.177216 273.893219,320.765839 271.070374,320.136139 
	C262.386047,318.198822 254.496155,314.192413 246.526154,310.419128 
	C245.327362,309.851593 244.154572,309.205994 243.039658,308.487946 
	C232.641052,301.790771 229.178391,290.231018 234.139816,278.947693 
	C235.471039,275.920227 237.555038,274.865417 240.494843,276.647369 
	C242.762238,278.021729 244.908890,279.609680 247.031418,281.206146 
	C255.393250,287.495605 264.542297,291.376312 275.248444,290.839294 
	C278.849854,290.658630 282.867249,290.562836 284.056915,286.651703 
	C285.167786,282.999512 281.513550,281.275208 279.022339,279.457886 
	C270.008759,272.882568 260.941345,266.380981 251.889313,259.858429 
	C235.109467,247.767532 234.717865,228.236084 249.527756,213.399445 
	C257.279633,205.633575 266.976074,201.806549 277.560883,200.328857 
	C291.116547,198.436417 304.706970,197.495453 317.893250,202.748383 
	C326.253357,206.078735 333.261017,210.659332 335.657410,220.128036 
	C337.749573,228.394638 332.873138,233.551010 324.442627,231.805389 
	C315.998718,230.057022 307.808777,226.923691 298.999847,227.159622 
	C296.494324,227.226715 293.673553,226.903702 292.600342,229.849106 
	C291.525909,232.797928 293.963623,234.433380 295.772156,236.072495 
	C299.117096,239.104019 302.873474,241.604706 306.842621,243.735382 
	C314.353394,247.767212 321.248108,252.732880 328.188721,257.627777 
	C333.605927,261.448242 337.846313,266.282074 340.542664,272.855194 
z"/>
<path fill="#000000" opacity="1.000000" stroke="none" 
	d="
M209.145599,271.131775 
	C210.419022,282.510529 213.067062,293.152771 215.852798,303.767029 
	C216.317352,305.537079 216.892273,307.293152 217.173950,309.093567 
	C218.335007,316.514557 216.233353,320.004852 209.114349,322.356079 
	C199.169846,325.640533 189.363831,324.488556 179.790970,320.892792 
	C175.173141,319.158203 172.481079,315.321167 170.563675,310.878998 
	C165.748062,299.722260 164.182297,287.830505 162.770844,275.939941 
	C160.093597,253.385880 160.284012,230.711807 160.818604,208.071274 
	C161.195267,192.119110 162.365677,176.198288 167.354584,160.803940 
	C170.039307,152.519653 175.267242,148.181091 184.009186,147.502243 
	C189.385788,147.084717 194.672348,146.985703 199.848358,148.434235 
	C207.177017,150.485214 210.125336,154.623138 209.053513,162.163239 
	C205.097534,189.992676 205.460190,217.951004 206.441513,245.911301 
	C206.732162,254.193024 208.158920,262.434875 209.145599,271.131775 
z"/>
<path fill="#000000" opacity="1.000000" stroke="none" 
	d="
M475.260315,187.202393 
	C468.025848,183.084229 465.534821,177.475647 467.729187,170.991699 
	C469.712036,165.132751 475.266968,161.528641 481.203674,162.249329 
	C489.063873,163.203522 494.330627,169.932785 492.907959,177.203781 
	C491.293121,185.456985 484.191101,189.615707 475.260315,187.202393 
M474.486969,182.482437 
	C477.510742,184.421494 480.570587,185.748749 484.746826,182.576706 
	C481.085754,182.776215 480.940063,179.671478 478.591064,178.202072 
	C478.450195,181.305145 477.139954,182.994644 473.860291,181.096146 
	C473.909363,176.733658 473.958435,172.371170 474.901062,167.954147 
	C476.063110,167.928665 477.226227,167.857498 478.386993,167.885239 
	C485.156403,168.046951 485.833038,168.890396 484.279297,175.416183 
	C483.678802,177.938263 485.219269,179.315079 486.676971,180.927505 
	C490.104553,176.263733 490.175537,172.759903 487.074738,169.171204 
	C483.900452,165.497345 479.486603,165.100281 473.514984,168.487534 
	C469.338470,175.138779 469.406555,177.035477 474.486969,182.482437 
z"/>
</svg>