<svg version="1.1" id="Layer_1" xmlns="http://www.w3.org/2000/svg" xmlns:xlink="http://www.w3.org/1999/xlink" x="0px" y="0px"
	 width="100%" viewBox="0 0 1366 768" enable-background="new 0 0 1366 768" xml:space="preserve">
<path fill="#FFFFFF" opacity="1.000000" stroke="none" 
	d="
M1004.000000,769.000000 
	C669.372437,769.000000 335.244812,769.000000 1.058618,769.000000 
	C1.058618,513.069031 1.058618,257.138031 1.058618,1.103525 
	C456.211029,1.103525 911.422119,1.103525 1366.816650,1.103525 
	C1366.816650,256.999878 1366.816650,512.999939 1366.816650,769.000000 
	C1246.137817,769.000000 1125.318848,769.000000 1004.000000,769.000000 
M329.875366,338.186462 
	C320.242523,340.626221 310.120056,341.909027 301.074768,345.737122 
	C279.650757,354.804047 262.529419,369.459778 248.994019,388.591095 
	C239.982025,401.328888 232.992172,414.598083 231.377029,430.303650 
	C228.605591,457.252960 236.748474,479.193848 260.596130,493.915802 
	C279.080231,505.326660 299.237000,511.845886 320.855438,512.874390 
	C347.329987,514.133911 372.089203,508.451385 393.637390,492.024048 
	C394.496002,491.369446 395.528931,490.943481 395.471283,490.975739 
	C399.478516,496.859833 402.208557,503.771301 407.254883,507.730377 
	C421.997375,519.296570 442.291931,522.816956 459.805786,513.918457 
	C469.244934,509.122589 472.525665,500.542206 469.350220,490.342010 
	C468.659058,488.121826 468.049774,485.843994 467.062744,483.753235 
	C459.298828,467.307281 456.493927,449.685181 456.473511,431.845551 
	C456.440918,403.398010 456.581665,374.880829 458.493683,346.517456 
	C461.070831,308.287811 435.005707,271.990540 401.340515,262.351349 
	C372.877686,254.201706 344.422058,251.575272 315.046814,254.761246 
	C285.967560,257.915131 261.388489,269.281799 241.846695,291.167450 
	C237.283920,296.277466 235.204529,302.167328 236.557770,309.098877 
	C241.999329,336.971283 272.963287,341.035919 289.058807,329.901428 
	C294.617126,326.056305 300.542297,322.386627 306.818665,320.002686 
	C323.833252,313.540009 341.498230,313.036530 359.427002,315.561890 
	C369.750153,317.015900 378.303864,321.623291 385.863678,328.429321 
	C389.793823,331.967560 390.950165,336.660919 391.103271,342.286285 
	C370.893341,337.707581 350.953339,335.978638 329.875366,338.186462 
M1079.070679,514.480591 
	C1090.520508,519.351501 1102.143066,520.287842 1114.091675,516.320801 
	C1128.785889,511.442139 1133.320679,501.938843 1128.519043,487.332001 
	C1124.645508,475.548004 1120.196899,463.711945 1118.370361,451.543671 
	C1113.825073,421.260681 1116.515381,390.740540 1117.617432,360.311859 
	C1118.086426,347.365448 1119.948730,334.295349 1116.482910,321.581146 
	C1107.871216,289.989838 1088.006104,269.601288 1056.054810,260.765381 
	C1028.160767,253.051407 1000.094116,251.572388 971.508850,255.190292 
	C944.521179,258.605988 921.647522,269.739502 903.133423,289.790894 
	C898.091125,295.251831 895.384033,301.204956 896.608826,308.793640 
	C900.374390,332.123932 928.816956,344.050964 948.744751,329.799957 
	C966.867554,316.839752 986.959106,313.493561 1008.346497,314.355713 
	C1021.556335,314.888245 1033.994995,317.857269 1044.358521,326.840118 
	C1049.033325,330.892181 1051.096436,335.844696 1051.157959,341.498413 
	C1039.698120,340.124115 1028.843750,338.380249 1017.920654,337.605652 
	C996.055115,336.055206 974.519348,338.139587 954.814941,348.444977 
	C935.685730,358.449615 919.939209,372.468475 907.610352,390.539093 
	C899.072998,403.052521 892.757080,416.091919 891.345520,431.222809 
	C889.283691,453.324219 894.306091,472.955170 912.103821,487.751007 
	C921.936157,495.924957 933.214539,501.735107 945.284607,505.651428 
	C984.034668,518.224548 1020.980591,516.087341 1054.843018,491.156219 
	C1055.322388,490.803314 1055.972412,490.682465 1056.757935,490.366913 
	C1060.250244,501.822021 1066.521729,510.567627 1079.070679,514.480591 
M697.444214,498.089844 
	C707.247009,501.051208 717.049744,504.012573 726.086243,506.742432 
	C725.000549,521.516846 723.810303,536.551086 722.826660,551.598755 
	C722.349731,558.895325 725.014160,561.867615 732.267151,561.908203 
	C736.217468,561.930359 740.161194,560.851746 744.129028,560.586548 
	C749.227966,560.245605 754.478027,559.432434 759.429199,560.245605 
	C767.125061,561.509583 769.395264,569.578064 763.643433,574.864929 
	C760.419250,577.828430 756.192261,579.723755 752.347351,581.981567 
	C749.355042,583.738708 746.082336,585.063354 743.246277,587.030151 
	C739.661133,589.516541 738.301697,593.225769 739.198364,597.554077 
	C740.976013,606.134949 748.987244,612.473511 757.570679,610.817749 
	C783.041321,605.904602 801.652893,591.466980 811.699341,567.599304 
	C817.097961,554.773743 813.153992,536.140259 795.828735,528.767395 
	C790.975281,526.701965 785.852966,524.891479 780.677551,524.052429 
	C773.859192,522.947021 766.866699,522.915894 759.723938,522.406860 
	C759.723938,517.465393 759.723938,512.506531 759.723938,507.410431 
	C767.646484,506.290680 775.751648,505.476257 783.722900,503.958466 
	C811.459412,498.677216 833.666504,484.995056 847.579895,459.858185 
	C855.487915,445.571014 858.772888,430.250427 853.034546,414.240967 
	C848.313843,401.070740 839.155273,391.195282 827.760803,383.530945 
	C814.110840,374.349487 799.968323,365.900024 786.321777,356.713623 
	C777.663635,350.885315 769.236145,344.623047 761.328369,337.830017 
	C759.102356,335.917816 757.274658,330.335114 758.462830,328.398956 
	C760.294556,325.414215 764.860718,322.489288 768.309692,322.438446 
	C776.527832,322.317291 784.855408,323.426575 792.983948,324.895386 
	C804.410156,326.960052 815.588379,330.726929 827.070801,332.063568 
	C840.074890,333.577332 846.935730,324.462128 843.494263,311.777374 
	C840.055237,299.101532 833.671509,288.425079 820.996582,283.086426 
	C810.793213,278.788757 800.620300,273.205811 789.917114,271.566101 
	C769.167236,268.387238 748.092529,269.025055 727.294678,272.943207 
	C703.051819,277.510376 682.202087,287.839905 667.608398,308.539124 
	C648.782898,335.240540 653.765259,364.989746 676.877563,383.260559 
	C687.319824,391.515411 698.074829,399.382141 708.821533,407.242249 
	C719.297791,414.904633 730.109436,422.115723 740.460388,429.939606 
	C747.802490,435.489197 746.941895,443.506378 738.570801,447.214783 
	C734.606506,448.970947 729.910767,449.699615 725.526428,449.778137 
	C703.970642,450.164337 685.270935,442.368561 668.589417,429.109497 
	C665.211792,426.424896 661.803650,423.707703 658.111023,421.506348 
	C651.772278,417.727539 648.237793,418.630859 646.872559,425.958282 
	C644.880249,436.650238 644.210632,447.637970 643.746765,458.532379 
	C643.623169,461.436493 645.787903,464.879028 647.792664,467.352448 
	C654.569214,475.713257 662.711182,482.431335 672.751709,486.750671 
	C680.835266,490.228088 688.746704,494.105438 697.444214,498.089844 
M506.897034,239.413727 
	C505.597900,258.994354 503.612671,278.558411 503.138489,298.158997 
	C502.058716,342.790558 503.295319,387.374237 508.934662,431.732819 
	C511.287476,450.239685 514.785828,468.489441 521.930786,485.869629 
	C526.259460,496.399231 533.059631,504.449829 544.223206,507.838074 
	C558.920044,512.298706 573.958130,513.560974 589.144775,510.976624 
	C609.892151,507.446014 615.835449,497.929077 610.054321,477.934357 
	C595.861389,428.846405 590.253235,378.555359 589.138794,327.659943 
	C588.171875,283.500061 589.985291,239.465454 595.503784,195.603455 
	C597.198120,182.136658 592.008667,173.693375 578.612854,171.167877 
	C568.146545,169.194687 557.158997,169.149109 546.446655,169.516983 
	C530.788147,170.054688 520.625305,178.889923 516.718079,193.803192 
	C512.855286,208.546738 510.158325,223.595734 506.897034,239.413727 
M1004.487793,118.524033 
	C1004.371155,121.160545 1003.560425,123.995262 1004.247803,126.402191 
	C1009.678040,145.417603 1019.078857,162.287292 1032.959473,176.422791 
	C1034.735718,178.231659 1038.837769,179.580521 1041.025757,178.799347 
	C1046.346313,176.899796 1051.468018,174.036301 1056.101929,170.758316 
	C1059.392090,168.430908 1059.125488,164.691818 1056.494873,161.492126 
	C1053.536133,157.893280 1050.033691,154.629761 1047.672974,150.679382 
	C1044.744995,145.779984 1041.868286,140.535263 1040.559204,135.059647 
	C1038.767090,127.563622 1044.976318,122.665123 1052.146484,125.743027 
	C1055.777588,127.301720 1059.318481,130.160263 1061.681030,133.337540 
	C1065.520264,138.500534 1068.725220,144.233276 1071.499146,150.058228 
	C1073.601685,154.473434 1076.440918,155.687668 1081.010620,155.141968 
	C1092.285767,153.795517 1094.336426,150.758087 1089.329102,140.788712 
	C1085.388916,132.943695 1080.671265,125.490349 1076.338379,117.840721 
	C1074.523193,114.636169 1072.316528,111.242935 1075.409302,107.770599 
	C1078.409058,104.402718 1082.330444,102.938873 1086.668701,105.038551 
	C1089.312744,106.318214 1092.347290,107.725136 1093.986206,109.966957 
	C1098.358643,115.947777 1102.050293,122.424278 1106.058716,128.674210 
	C1107.266479,130.557526 1108.250977,132.929565 1109.997314,134.045471 
	C1113.043457,135.991898 1124.192627,133.872635 1125.648560,130.476898 
	C1126.929565,127.489326 1126.730713,122.876488 1125.297363,119.886505 
	C1118.891846,106.525009 1110.251099,94.756744 1097.566162,86.563499 
	C1094.821777,84.790863 1091.671997,83.439247 1088.524780,82.532410 
	C1074.450439,78.476952 1062.222534,83.797920 1057.450073,95.907005 
	C1056.560303,98.164673 1056.056885,100.574608 1055.385498,102.878853 
	C1043.853638,101.294029 1032.769775,100.420868 1026.347168,112.902283 
	C1022.330994,107.528572 1019.901184,106.752174 1013.860107,110.265823 
	C1010.521973,112.207336 1007.828247,115.256844 1004.487793,118.524033 
M956.721252,151.243240 
	C947.764832,162.294754 944.572388,175.001312 945.922607,188.994843 
	C947.198364,202.216309 957.507019,213.609711 969.140503,214.703262 
	C983.370178,216.040848 996.660278,208.595306 1003.036011,195.717453 
	C1007.506958,186.686905 1009.072693,177.117706 1008.069214,167.150818 
	C1006.838684,154.929443 997.307800,141.878632 987.563599,139.379868 
	C974.919617,136.137466 965.314392,141.576309 956.721252,151.243240 
M875.985718,188.492493 
	C874.089600,190.808441 872.006409,192.997009 870.328247,195.461380 
	C860.570923,209.789246 861.802917,225.332626 873.743774,237.209167 
	C881.129578,244.555191 889.934814,249.241028 900.389832,250.743866 
	C920.339600,253.611496 941.705688,241.216736 947.075500,223.193863 
	C947.823303,220.683853 947.859314,216.062271 946.501343,215.229919 
	C943.881592,213.624130 939.885376,213.262756 936.741516,213.862335 
	C934.615295,214.267838 932.530212,216.920990 931.191650,219.049820 
	C926.895630,225.881836 921.030029,230.334305 913.243713,232.389053 
	C904.060242,234.812454 896.598450,231.925308 891.333984,223.792236 
	C887.391602,217.701782 888.460815,210.148102 894.479370,203.230484 
	C900.119385,196.747894 907.196716,192.751755 915.678345,190.982574 
	C917.833984,190.532928 920.892578,188.954117 921.438721,187.229782 
	C923.380127,181.099930 921.573242,174.821579 917.292053,170.649155 
	C915.188354,168.598953 909.736938,168.771881 906.204712,169.620834 
	C894.401062,172.457794 884.818542,179.316132 875.985718,188.492493 
M949.083374,589.724548 
	C957.426697,583.946655 960.143311,574.348083 955.643372,564.606750 
	C949.247375,550.760681 938.478394,543.437134 922.641724,544.011292 
	C922.130981,539.486145 921.625183,535.051147 921.131104,530.614868 
	C920.547058,525.370789 918.175110,524.017639 911.383911,524.678223 
	C906.539734,525.149536 907.268799,528.268311 907.565979,531.585266 
	C909.289185,550.820068 911.375366,570.090149 905.441650,589.036194 
	C904.328064,592.592102 906.455139,593.704041 909.147583,593.984680 
	C914.706116,594.564087 920.209595,594.605713 922.600037,588.049255 
	C932.769958,594.156067 938.933594,594.586731 949.083374,589.724548 
M1061.291626,589.965881 
	C1071.477905,585.055176 1072.140747,571.429321 1067.572876,562.891479 
	C1060.741455,550.122864 1050.258667,543.215454 1035.262939,544.067261 
	C1034.804077,539.328796 1034.467529,534.867981 1033.917725,530.433777 
	C1033.290894,525.376831 1030.525024,524.028137 1023.835022,524.683838 
	C1018.727661,525.184326 1019.813110,528.814087 1020.122925,531.717590 
	C1022.172424,550.924866 1024.006714,570.094910 1018.081909,589.018982 
	C1017.199219,591.838318 1018.574158,593.371643 1021.365295,593.972961 
	C1027.682007,595.333801 1031.667480,593.739990 1035.288574,588.276611 
	C1046.329712,594.158875 1051.169434,594.544312 1061.291626,589.965881 
M1128.116821,554.602722 
	C1127.690186,549.959351 1122.840088,544.941040 1118.054565,544.556641 
	C1113.388184,544.181824 1113.271973,548.431763 1111.993530,551.225464 
	C1109.014038,557.736633 1106.284058,564.361938 1103.085938,571.793945 
	C1099.450073,564.453735 1096.325073,558.066772 1093.128662,551.715576 
	C1090.393433,546.280884 1088.276855,545.652039 1082.296631,548.338806 
	C1076.952637,550.739807 1074.835327,554.693176 1077.003418,559.360168 
	C1080.149902,566.133179 1083.516602,572.822388 1087.150391,579.346191 
	C1092.599365,589.128540 1092.488892,590.755920 1084.337769,598.887329 
	C1083.278931,599.943604 1081.840820,600.866333 1081.323364,602.151001 
	C1080.781006,603.497192 1080.540161,605.546875 1081.199585,606.697815 
	C1084.700928,612.808594 1095.439209,614.488037 1100.248535,609.274536 
	C1104.719482,604.427979 1108.577881,598.929138 1112.155640,593.363770 
	C1119.662354,581.686707 1125.207886,569.107605 1128.116821,554.602722 
M1002.211304,546.093506 
	C990.527588,541.368408 979.039062,540.129517 968.165222,548.189697 
	C965.322815,550.296570 963.820374,553.035583 966.276123,556.302734 
	C968.575745,559.362122 971.714905,559.885437 975.163757,558.226929 
	C976.805359,557.437561 978.342651,556.381409 980.044495,555.775818 
	C986.861084,553.350403 993.130615,554.930725 995.729614,559.595093 
	C995.420288,559.700562 995.101135,559.918274 994.803406,559.892090 
	C993.480103,559.775757 992.165039,559.569275 990.843262,559.431702 
	C980.168823,558.320435 971.970215,562.349915 966.399963,571.483765 
	C961.403748,579.676331 964.030396,588.275757 972.762268,592.149536 
	C981.030518,595.817505 989.185181,595.244019 996.992737,590.504333 
	C999.670837,594.921936 1003.408752,596.382568 1008.135620,595.292725 
	C1011.316284,594.559509 1012.878662,592.379578 1011.618774,589.387207 
	C1008.029724,580.862793 1008.902649,571.992371 1009.535400,563.252258 
	C1010.037903,556.311035 1008.188477,550.833740 1002.211304,546.093506 
M1103.852905,250.553284 
	C1104.027222,263.409576 1113.332031,272.614594 1126.302734,272.762360 
	C1139.174805,272.908997 1149.364868,263.574982 1149.751953,251.283203 
	C1150.118896,239.628891 1140.033569,229.522736 1127.493164,228.978531 
	C1115.106323,228.440979 1104.743530,237.503250 1103.852905,250.553284 
M873.904114,249.175995 
	C871.940552,250.396973 869.723694,251.344406 868.057800,252.886902 
	C861.302856,259.141968 863.578186,270.202148 872.100342,273.141449 
	C877.368774,274.958557 884.046570,272.944763 887.812134,268.403320 
	C891.266968,264.236481 891.831360,259.001617 889.309631,254.512329 
	C886.542969,249.586792 881.785889,247.786255 873.904114,249.175995 
z"/>
<path fill="#1B0E5E" opacity="1.000000" stroke="none" 
	d="
M330.325684,338.119202 
	C350.953339,335.978638 370.893341,337.707581 391.103271,342.286285 
	C390.950165,336.660919 389.793823,331.967560 385.863678,328.429321 
	C378.303864,321.623291 369.750153,317.015900 359.427002,315.561890 
	C341.498230,313.036530 323.833252,313.540009 306.818665,320.002686 
	C300.542297,322.386627 294.617126,326.056305 289.058807,329.901428 
	C272.963287,341.035919 241.999329,336.971283 236.557770,309.098877 
	C235.204529,302.167328 237.283920,296.277466 241.846695,291.167450 
	C261.388489,269.281799 285.967560,257.915131 315.046814,254.761246 
	C344.422058,251.575272 372.877686,254.201706 401.340515,262.351349 
	C435.005707,271.990540 461.070831,308.287811 458.493683,346.517456 
	C456.581665,374.880829 456.440918,403.398010 456.473511,431.845551 
	C456.493927,449.685181 459.298828,467.307281 467.062744,483.753235 
	C468.049774,485.843994 468.659058,488.121826 469.350220,490.342010 
	C472.525665,500.542206 469.244934,509.122589 459.805786,513.918457 
	C442.291931,522.816956 421.997375,519.296570 407.254883,507.730377 
	C402.208557,503.771301 399.478516,496.859833 395.471283,490.975739 
	C395.528931,490.943481 394.496002,491.369446 393.637390,492.024048 
	C372.089203,508.451385 347.329987,514.133911 320.855438,512.874390 
	C299.237000,511.845886 279.080231,505.326660 260.596130,493.915802 
	C236.748474,479.193848 228.605591,457.252960 231.377029,430.303650 
	C232.992172,414.598083 239.982025,401.328888 248.994019,388.591095 
	C262.529419,369.459778 279.650757,354.804047 301.074768,345.737122 
	C310.120056,341.909027 320.242523,340.626221 330.325684,338.119202 
M385.070068,425.483612 
	C386.345764,421.557953 388.244873,417.714233 388.773712,413.690430 
	C390.068665,403.837463 383.832001,394.803589 373.162506,390.032867 
	C351.612457,380.397034 323.808319,392.791962 315.832886,415.195251 
	C311.259125,428.043152 321.474030,451.859619 340.913086,450.942749 
	C359.584076,450.062164 375.135986,443.226501 385.070068,425.483612 
z"/>
<path fill="#1B0E5E" opacity="1.000000" stroke="none" 
	d="
M1078.712891,514.328491 
	C1066.521729,510.567627 1060.250244,501.822021 1056.757935,490.366913 
	C1055.972412,490.682465 1055.322388,490.803314 1054.843018,491.156219 
	C1020.980591,516.087341 984.034668,518.224548 945.284607,505.651428 
	C933.214539,501.735107 921.936157,495.924957 912.103821,487.751007 
	C894.306091,472.955170 889.283691,453.324219 891.345520,431.222809 
	C892.757080,416.091919 899.072998,403.052521 907.610352,390.539093 
	C919.939209,372.468475 935.685730,358.449615 954.814941,348.444977 
	C974.519348,338.139587 996.055115,336.055206 1017.920654,337.605652 
	C1028.843750,338.380249 1039.698120,340.124115 1051.157959,341.498413 
	C1051.096436,335.844696 1049.033325,330.892181 1044.358521,326.840118 
	C1033.994995,317.857269 1021.556335,314.888245 1008.346497,314.355713 
	C986.959106,313.493561 966.867554,316.839752 948.744751,329.799957 
	C928.816956,344.050964 900.374390,332.123932 896.608826,308.793640 
	C895.384033,301.204956 898.091125,295.251831 903.133423,289.790894 
	C921.647522,269.739502 944.521179,258.605988 971.508850,255.190292 
	C1000.094116,251.572388 1028.160767,253.051407 1056.054810,260.765381 
	C1088.006104,269.601288 1107.871216,289.989838 1116.482910,321.581146 
	C1119.948730,334.295349 1118.086426,347.365448 1117.617432,360.311859 
	C1116.515381,390.740540 1113.825073,421.260681 1118.370361,451.543671 
	C1120.196899,463.711945 1124.645508,475.548004 1128.519043,487.332001 
	C1133.320679,501.938843 1128.785889,511.442139 1114.091675,516.320801 
	C1102.143066,520.287842 1090.520508,519.351501 1078.712891,514.328491 
M1009.304626,387.576996 
	C1007.533447,388.023621 1005.746399,388.415527 1003.993652,388.925568 
	C990.994141,392.708252 982.523132,401.452393 976.642334,413.338257 
	C970.114319,426.532349 981.118103,451.972198 1001.426880,451.012482 
	C1020.776062,450.098022 1040.384155,440.481903 1047.347656,420.287903 
	C1051.095337,409.419708 1048.594727,400.832581 1039.448364,393.833374 
	C1030.709473,387.146027 1020.735718,385.825897 1009.304626,387.576996 
z"/>
<path fill="#1B0E5E" opacity="1.000000" stroke="none" 
	d="
M697.089355,497.947601 
	C688.746704,494.105438 680.835266,490.228088 672.751709,486.750671 
	C662.711182,482.431335 654.569214,475.713257 647.792664,467.352448 
	C645.787903,464.879028 643.623169,461.436493 643.746765,458.532379 
	C644.210632,447.637970 644.880249,436.650238 646.872559,425.958282 
	C648.237793,418.630859 651.772278,417.727539 658.111023,421.506348 
	C661.803650,423.707703 665.211792,426.424896 668.589417,429.109497 
	C685.270935,442.368561 703.970642,450.164337 725.526428,449.778137 
	C729.910767,449.699615 734.606506,448.970947 738.570801,447.214783 
	C746.941895,443.506378 747.802490,435.489197 740.460388,429.939606 
	C730.109436,422.115723 719.297791,414.904633 708.821533,407.242249 
	C698.074829,399.382141 687.319824,391.515411 676.877563,383.260559 
	C653.765259,364.989746 648.782898,335.240540 667.608398,308.539124 
	C682.202087,287.839905 703.051819,277.510376 727.294678,272.943207 
	C748.092529,269.025055 769.167236,268.387238 789.917114,271.566101 
	C800.620300,273.205811 810.793213,278.788757 820.996582,283.086426 
	C833.671509,288.425079 840.055237,299.101532 843.494263,311.777374 
	C846.935730,324.462128 840.074890,333.577332 827.070801,332.063568 
	C815.588379,330.726929 804.410156,326.960052 792.983948,324.895386 
	C784.855408,323.426575 776.527832,322.317291 768.309692,322.438446 
	C764.860718,322.489288 760.294556,325.414215 758.462830,328.398956 
	C757.274658,330.335114 759.102356,335.917816 761.328369,337.830017 
	C769.236145,344.623047 777.663635,350.885315 786.321777,356.713623 
	C799.968323,365.900024 814.110840,374.349487 827.760803,383.530945 
	C839.155273,391.195282 848.313843,401.070740 853.034546,414.240967 
	C858.772888,430.250427 855.487915,445.571014 847.579895,459.858185 
	C833.666504,484.995056 811.459412,498.677216 783.722900,503.958466 
	C775.751648,505.476257 767.646484,506.290680 759.723938,507.410431 
	C759.723938,512.506531 759.723938,517.465393 759.723938,522.406860 
	C766.866699,522.915894 773.859192,522.947021 780.677551,524.052429 
	C785.852966,524.891479 790.975281,526.701965 795.828735,528.767395 
	C813.153992,536.140259 817.097961,554.773743 811.699341,567.599304 
	C801.652893,591.466980 783.041321,605.904602 757.570679,610.817749 
	C748.987244,612.473511 740.976013,606.134949 739.198364,597.554077 
	C738.301697,593.225769 739.661133,589.516541 743.246277,587.030151 
	C746.082336,585.063354 749.355042,583.738708 752.347351,581.981567 
	C756.192261,579.723755 760.419250,577.828430 763.643433,574.864929 
	C769.395264,569.578064 767.125061,561.509583 759.429199,560.245605 
	C754.478027,559.432434 749.227966,560.245605 744.129028,560.586548 
	C740.161194,560.851746 736.217468,561.930359 732.267151,561.908203 
	C725.014160,561.867615 722.349731,558.895325 722.826660,551.598755 
	C723.810303,536.551086 725.000549,521.516846 726.086243,506.742432 
	C717.049744,504.012573 707.247009,501.051208 697.089355,497.947601 
z"/>
<path fill="#1B0E5D" opacity="1.000000" stroke="none" 
	d="
M506.923523,238.962234 
	C510.158325,223.595734 512.855286,208.546738 516.718079,193.803192 
	C520.625305,178.889923 530.788147,170.054688 546.446655,169.516983 
	C557.158997,169.149109 568.146545,169.194687 578.612854,171.167877 
	C592.008667,173.693375 597.198120,182.136658 595.503784,195.603455 
	C589.985291,239.465454 588.171875,283.500061 589.138794,327.659943 
	C590.253235,378.555359 595.861389,428.846405 610.054321,477.934357 
	C615.835449,497.929077 609.892151,507.446014 589.144775,510.976624 
	C573.958130,513.560974 558.920044,512.298706 544.223206,507.838074 
	C533.059631,504.449829 526.259460,496.399231 521.930786,485.869629 
	C514.785828,468.489441 511.287476,450.239685 508.934662,431.732819 
	C503.295319,387.374237 502.058716,342.790558 503.138489,298.158997 
	C503.612671,278.558411 505.597900,258.994354 506.923523,238.962234 
z"/>
<path fill="#1D105F" opacity="1.000000" stroke="none" 
	d="
M1004.665894,118.165451 
	C1007.828247,115.256844 1010.521973,112.207336 1013.860107,110.265823 
	C1019.901184,106.752174 1022.330994,107.528572 1026.347168,112.902283 
	C1032.769775,100.420868 1043.853638,101.294029 1055.385498,102.878853 
	C1056.056885,100.574608 1056.560303,98.164673 1057.450073,95.907005 
	C1062.222534,83.797920 1074.450439,78.476952 1088.524780,82.532410 
	C1091.671997,83.439247 1094.821777,84.790863 1097.566162,86.563499 
	C1110.251099,94.756744 1118.891846,106.525009 1125.297363,119.886505 
	C1126.730713,122.876488 1126.929565,127.489326 1125.648560,130.476898 
	C1124.192627,133.872635 1113.043457,135.991898 1109.997314,134.045471 
	C1108.250977,132.929565 1107.266479,130.557526 1106.058716,128.674210 
	C1102.050293,122.424278 1098.358643,115.947777 1093.986206,109.966957 
	C1092.347290,107.725136 1089.312744,106.318214 1086.668701,105.038551 
	C1082.330444,102.938873 1078.409058,104.402718 1075.409302,107.770599 
	C1072.316528,111.242935 1074.523193,114.636169 1076.338379,117.840721 
	C1080.671265,125.490349 1085.388916,132.943695 1089.329102,140.788712 
	C1094.336426,150.758087 1092.285767,153.795517 1081.010620,155.141968 
	C1076.440918,155.687668 1073.601685,154.473434 1071.499146,150.058228 
	C1068.725220,144.233276 1065.520264,138.500534 1061.681030,133.337540 
	C1059.318481,130.160263 1055.777588,127.301720 1052.146484,125.743027 
	C1044.976318,122.665123 1038.767090,127.563622 1040.559204,135.059647 
	C1041.868286,140.535263 1044.744995,145.779984 1047.672974,150.679382 
	C1050.033691,154.629761 1053.536133,157.893280 1056.494873,161.492126 
	C1059.125488,164.691818 1059.392090,168.430908 1056.101929,170.758316 
	C1051.468018,174.036301 1046.346313,176.899796 1041.025757,178.799347 
	C1038.837769,179.580521 1034.735718,178.231659 1032.959473,176.422791 
	C1019.078857,162.287292 1009.678040,145.417603 1004.247803,126.402191 
	C1003.560425,123.995262 1004.371155,121.160545 1004.665894,118.165451 
z"/>
<path fill="#1D105F" opacity="1.000000" stroke="none" 
	d="
M956.943115,150.963776 
	C965.314392,141.576309 974.919617,136.137466 987.563599,139.379868 
	C997.307800,141.878632 1006.838684,154.929443 1008.069214,167.150818 
	C1009.072693,177.117706 1007.506958,186.686905 1003.036011,195.717453 
	C996.660278,208.595306 983.370178,216.040848 969.140503,214.703262 
	C957.507019,213.609711 947.198364,202.216309 945.922607,188.994843 
	C944.572388,175.001312 947.764832,162.294754 956.943115,150.963776 
M976.481262,173.298676 
	C974.853699,173.601349 973.172424,173.735916 971.608154,174.236374 
	C965.429260,176.213043 963.892090,181.021164 967.680664,186.246567 
	C970.373291,189.960449 977.588196,192.769318 981.899353,191.782059 
	C987.567078,190.484146 990.597412,183.974182 986.899963,179.485794 
	C984.591431,176.683456 980.540649,175.316376 976.481262,173.298676 
z"/>
<path fill="#1D105F" opacity="1.000000" stroke="none" 
	d="
M876.234680,188.242065 
	C884.818542,179.316132 894.401062,172.457794 906.204712,169.620834 
	C909.736938,168.771881 915.188354,168.598953 917.292053,170.649155 
	C921.573242,174.821579 923.380127,181.099930 921.438721,187.229782 
	C920.892578,188.954117 917.833984,190.532928 915.678345,190.982574 
	C907.196716,192.751755 900.119385,196.747894 894.479370,203.230484 
	C888.460815,210.148102 887.391602,217.701782 891.333984,223.792236 
	C896.598450,231.925308 904.060242,234.812454 913.243713,232.389053 
	C921.030029,230.334305 926.895630,225.881836 931.191650,219.049820 
	C932.530212,216.920990 934.615295,214.267838 936.741516,213.862335 
	C939.885376,213.262756 943.881592,213.624130 946.501343,215.229919 
	C947.859314,216.062271 947.823303,220.683853 947.075500,223.193863 
	C941.705688,241.216736 920.339600,253.611496 900.389832,250.743866 
	C889.934814,249.241028 881.129578,244.555191 873.743774,237.209167 
	C861.802917,225.332626 860.570923,209.789246 870.328247,195.461380 
	C872.006409,192.997009 874.089600,190.808441 876.234680,188.242065 
z"/>
<path fill="#1D105F" opacity="1.000000" stroke="none" 
	d="
M948.750427,589.899536 
	C938.933594,594.586731 932.769958,594.156067 922.600037,588.049255 
	C920.209595,594.605713 914.706116,594.564087 909.147583,593.984680 
	C906.455139,593.704041 904.328064,592.592102 905.441650,589.036194 
	C911.375366,570.090149 909.289185,550.820068 907.565979,531.585266 
	C907.268799,528.268311 906.539734,525.149536 911.383911,524.678223 
	C918.175110,524.017639 920.547058,525.370789 921.131104,530.614868 
	C921.625183,535.051147 922.130981,539.486145 922.641724,544.011292 
	C938.478394,543.437134 949.247375,550.760681 955.643372,564.606750 
	C960.143311,574.348083 957.426697,583.946655 948.750427,589.899536 
M941.330688,572.469421 
	C940.785828,569.784363 941.042053,566.439636 939.504333,564.572021 
	C937.311462,561.908813 931.609680,563.805359 928.809265,567.451416 
	C926.136292,570.931396 926.190308,575.572998 928.929810,577.797546 
	C931.972412,580.268433 935.478943,579.640747 938.928467,575.935608 
	C939.710266,575.095825 940.320374,574.096191 941.330688,572.469421 
z"/>
<path fill="#1D105F" opacity="1.000000" stroke="none" 
	d="
M1060.952393,590.129639 
	C1051.169434,594.544312 1046.329712,594.158875 1035.288574,588.276611 
	C1031.667480,593.739990 1027.682007,595.333801 1021.365295,593.972961 
	C1018.574158,593.371643 1017.199219,591.838318 1018.081909,589.018982 
	C1024.006714,570.094910 1022.172424,550.924866 1020.122925,531.717590 
	C1019.813110,528.814087 1018.727661,525.184326 1023.835022,524.683838 
	C1030.525024,524.028137 1033.290894,525.376831 1033.917725,530.433777 
	C1034.467529,534.867981 1034.804077,539.328796 1035.262939,544.067261 
	C1050.258667,543.215454 1060.741455,550.122864 1067.572876,562.891479 
	C1072.140747,571.429321 1071.477905,585.055176 1060.952393,590.129639 
M1043.945557,578.980164 
	C1048.920776,579.091614 1053.880371,575.327271 1054.581421,570.656799 
	C1055.106323,567.159607 1054.031006,564.111389 1050.153320,563.578735 
	C1045.782959,562.978394 1042.409302,565.151978 1040.540161,569.072021 
	C1038.722656,572.883789 1038.774902,576.495361 1043.945557,578.980164 
z"/>
<path fill="#1E115F" opacity="1.000000" stroke="none" 
	d="
M1128.112549,555.028564 
	C1125.207886,569.107605 1119.662354,581.686707 1112.155640,593.363770 
	C1108.577881,598.929138 1104.719482,604.427979 1100.248535,609.274536 
	C1095.439209,614.488037 1084.700928,612.808594 1081.199585,606.697815 
	C1080.540161,605.546875 1080.781006,603.497192 1081.323364,602.151001 
	C1081.840820,600.866333 1083.278931,599.943604 1084.337769,598.887329 
	C1092.488892,590.755920 1092.599365,589.128540 1087.150391,579.346191 
	C1083.516602,572.822388 1080.149902,566.133179 1077.003418,559.360168 
	C1074.835327,554.693176 1076.952637,550.739807 1082.296631,548.338806 
	C1088.276855,545.652039 1090.393433,546.280884 1093.128662,551.715576 
	C1096.325073,558.066772 1099.450073,564.453735 1103.085938,571.793945 
	C1106.284058,564.361938 1109.014038,557.736633 1111.993530,551.225464 
	C1113.271973,548.431763 1113.388184,544.181824 1118.054565,544.556641 
	C1122.840088,544.941040 1127.690186,549.959351 1128.112549,555.028564 
z"/>
<path fill="#1E1160" opacity="1.000000" stroke="none" 
	d="
M1002.526001,546.289612 
	C1008.188477,550.833740 1010.037903,556.311035 1009.535400,563.252258 
	C1008.902649,571.992371 1008.029724,580.862793 1011.618774,589.387207 
	C1012.878662,592.379578 1011.316284,594.559509 1008.135620,595.292725 
	C1003.408752,596.382568 999.670837,594.921936 996.992737,590.504333 
	C989.185181,595.244019 981.030518,595.817505 972.762268,592.149536 
	C964.030396,588.275757 961.403748,579.676331 966.399963,571.483765 
	C971.970215,562.349915 980.168823,558.320435 990.843262,559.431702 
	C992.165039,559.569275 993.480103,559.775757 994.803406,559.892090 
	C995.101135,559.918274 995.420288,559.700562 995.728638,559.592163 
	C993.130615,554.930725 986.861084,553.350403 980.044495,555.775818 
	C978.342651,556.381409 976.805359,557.437561 975.163757,558.226929 
	C971.714905,559.885437 968.575745,559.362122 966.276123,556.302734 
	C963.820374,553.035583 965.322815,550.296570 968.165222,548.189697 
	C979.039062,540.129517 990.527588,541.368408 1002.526001,546.289612 
M992.317932,579.993774 
	C992.803528,579.549561 993.380005,579.171509 993.759277,578.650024 
	C995.631226,576.076111 996.915222,573.448730 993.812805,570.840576 
	C990.856934,568.355652 985.941223,568.880310 983.068054,571.993774 
	C980.614685,574.652283 979.997864,577.623413 982.604980,580.385742 
	C985.447327,583.397095 988.646606,581.928040 992.317932,579.993774 
z"/>
<path fill="#291D66" opacity="1.000000" stroke="none" 
	d="
M1103.853027,250.102509 
	C1104.743530,237.503250 1115.106323,228.440979 1127.493164,228.978531 
	C1140.033569,229.522736 1150.118896,239.628891 1149.751953,251.283203 
	C1149.364868,263.574982 1139.174805,272.908997 1126.302734,272.762360 
	C1113.332031,272.614594 1104.027222,263.409576 1103.853027,250.102509 
M1139.596191,262.657623 
	C1141.037842,260.687225 1142.957520,258.908020 1143.835693,256.712280 
	C1147.087280,248.580856 1143.136353,239.422577 1134.943970,235.356232 
	C1126.685791,231.257187 1116.232056,234.079483 1111.120850,241.787872 
	C1106.329468,249.014008 1107.893311,258.512756 1114.811890,264.206299 
	C1121.566650,269.765076 1132.708862,269.654205 1138.687744,263.898804 
	C1139.075195,263.525848 1138.966309,262.637268 1139.059814,262.039825 
	C1139.059814,262.039825 1139.008789,262.068848 1139.596191,262.657623 
z"/>
<path fill="#1F1360" opacity="1.000000" stroke="none" 
	d="
M874.276978,249.069885 
	C881.785889,247.786255 886.542969,249.586792 889.309631,254.512329 
	C891.831360,259.001617 891.266968,264.236481 887.812134,268.403320 
	C884.046570,272.944763 877.368774,274.958557 872.100342,273.141449 
	C863.578186,270.202148 861.302856,259.141968 868.057800,252.886902 
	C869.723694,251.344406 871.940552,250.396973 874.276978,249.069885 
z"/>
<path fill="#FDFDFE" opacity="1.000000" stroke="none" 
	d="
M384.936707,425.831604 
	C375.135986,443.226501 359.584076,450.062164 340.913086,450.942749 
	C321.474030,451.859619 311.259125,428.043152 315.832886,415.195251 
	C323.808319,392.791962 351.612457,380.397034 373.162506,390.032867 
	C383.832001,394.803589 390.068665,403.837463 388.773712,413.690430 
	C388.244873,417.714233 386.345764,421.557953 384.936707,425.831604 
z"/>
<path fill="#FEFDFE" opacity="1.000000" stroke="none" 
	d="
M1009.730225,387.456299 
	C1020.735718,385.825897 1030.709473,387.146027 1039.448364,393.833374 
	C1048.594727,400.832581 1051.095337,409.419708 1047.347656,420.287903 
	C1040.384155,440.481903 1020.776062,450.098022 1001.426880,451.012482 
	C981.118103,451.972198 970.114319,426.532349 976.642334,413.338257 
	C982.523132,401.452393 990.994141,392.708252 1003.993652,388.925568 
	C1005.746399,388.415527 1007.533447,388.023621 1009.730225,387.456299 
z"/>
<path fill="#F8F8F9" opacity="1.000000" stroke="none" 
	d="
M976.876526,173.301941 
	C980.540649,175.316376 984.591431,176.683456 986.899963,179.485794 
	C990.597412,183.974182 987.567078,190.484146 981.899353,191.782059 
	C977.588196,192.769318 970.373291,189.960449 967.680664,186.246567 
	C963.892090,181.021164 965.429260,176.213043 971.608154,174.236374 
	C973.172424,173.735916 974.853699,173.601349 976.876526,173.301941 
z"/>
<path fill="#F7F6F8" opacity="1.000000" stroke="none" 
	d="
M941.170166,572.819824 
	C940.320374,574.096191 939.710266,575.095825 938.928467,575.935608 
	C935.478943,579.640747 931.972412,580.268433 928.929810,577.797546 
	C926.190308,575.572998 926.136292,570.931396 928.809265,567.451416 
	C931.609680,563.805359 937.311462,561.908813 939.504333,564.572021 
	C941.042053,566.439636 940.785828,569.784363 941.170166,572.819824 
z"/>
<path fill="#F4F4F6" opacity="1.000000" stroke="none" 
	d="
M1043.567627,578.866150 
	C1038.774902,576.495361 1038.722656,572.883789 1040.540161,569.072021 
	C1042.409302,565.151978 1045.782959,562.978394 1050.153320,563.578735 
	C1054.031006,564.111389 1055.106323,567.159607 1054.581421,570.656799 
	C1053.880371,575.327271 1048.920776,579.091614 1043.567627,578.866150 
z"/>
<path fill="#F4F3F5" opacity="1.000000" stroke="none" 
	d="
M992.003906,580.210327 
	C988.646606,581.928040 985.447327,583.397095 982.604980,580.385742 
	C979.997864,577.623413 980.614685,574.652283 983.068054,571.993774 
	C985.941223,568.880310 990.856934,568.355652 993.812805,570.840576 
	C996.915222,573.448730 995.631226,576.076111 993.759277,578.650024 
	C993.380005,579.171509 992.803528,579.549561 992.003906,580.210327 
z"/>
<path fill="#F4F3F5" opacity="1.000000" stroke="none" 
	d="
M1139.088257,261.988556 
	C1138.966309,262.637268 1139.075195,263.525848 1138.687744,263.898804 
	C1132.708862,269.654205 1121.566650,269.765076 1114.811890,264.206299 
	C1107.893311,258.512756 1106.329468,249.014008 1111.120850,241.787872 
	C1116.232056,234.079483 1126.685791,231.257187 1134.943970,235.356232 
	C1143.136353,239.422577 1147.087280,248.580856 1143.835693,256.712280 
	C1142.957520,258.908020 1141.037842,260.687225 1139.216431,262.019501 
	C1141.014893,258.740143 1138.471313,258.144897 1136.997314,256.995667 
	C1134.843262,255.316315 1132.762329,253.785873 1135.311035,250.555069 
	C1138.414307,246.621140 1137.719482,243.015717 1133.641846,239.979584 
	C1129.174316,236.652985 1124.308228,237.485809 1119.381592,238.803024 
	C1115.540527,239.830048 1113.729126,242.209106 1114.337891,246.095779 
	C1115.053223,250.662888 1115.976440,255.200836 1116.927734,259.726562 
	C1117.813965,263.942383 1120.400269,264.420441 1123.488037,263.001099 
	C1123.961060,260.403442 1124.356812,258.230011 1124.752686,256.056580 
	C1126.661743,257.358154 1128.848999,258.392120 1130.417114,260.021820 
	C1132.994263,262.700500 1135.609741,263.899078 1139.088257,261.988556 
z"/>
<path fill="#221662" opacity="1.000000" stroke="none" 
	d="
M1139.073975,262.014191 
	C1135.609741,263.899078 1132.994263,262.700500 1130.417114,260.021820 
	C1128.848999,258.392120 1126.661743,257.358154 1124.752686,256.056580 
	C1124.356812,258.230011 1123.961060,260.403442 1123.488037,263.001099 
	C1120.400269,264.420441 1117.813965,263.942383 1116.927734,259.726562 
	C1115.976440,255.200836 1115.053223,250.662888 1114.337891,246.095779 
	C1113.729126,242.209106 1115.540527,239.830048 1119.381592,238.803024 
	C1124.308228,237.485809 1129.174316,236.652985 1133.641846,239.979584 
	C1137.719482,243.015717 1138.414307,246.621140 1135.311035,250.555069 
	C1132.762329,253.785873 1134.843262,255.316315 1136.997314,256.995667 
	C1138.471313,258.144897 1141.014893,258.740143 1138.922729,261.725098 
	C1139.008789,262.068848 1139.059814,262.039825 1139.073975,262.014191 
M1129.804321,246.554413 
	C1129.070312,245.604965 1128.485718,244.089951 1127.565186,243.846725 
	C1126.367920,243.530441 1124.590210,243.844116 1123.659302,244.611115 
	C1122.983521,245.167816 1122.741943,247.541748 1123.254150,247.968475 
	C1124.182739,248.742096 1125.832764,248.927124 1127.151855,248.849869 
	C1127.932617,248.804138 1128.656494,247.784973 1129.804321,246.554413 
z"/>
<path fill="#F4F3F5" opacity="1.000000" stroke="none" 
	d="
M1129.605103,246.878967 
	C1128.656494,247.784973 1127.932617,248.804138 1127.151855,248.849869 
	C1125.832764,248.927124 1124.182739,248.742096 1123.254150,247.968475 
	C1122.741943,247.541748 1122.983521,245.167816 1123.659302,244.611115 
	C1124.590210,243.844116 1126.367920,243.530441 1127.565186,243.846725 
	C1128.485718,244.089951 1129.070312,245.604965 1129.605103,246.878967 
z"/>
</svg>